<svg id="圖層_1" data-name="圖層 1" xmlns="http://www.w3.org/2000/svg" viewBox="0 0 38.71 41.88"><defs><style>.cls-1,.cls-2{fill:#16cfa1;}.cls-2{isolation:isolate;font-size:38px;font-family:HanWangWCL03;}</style></defs><path class="cls-1" d="M19.7,41.9c-3.9-.9-8.5,1.7-11.1-1.8C4.9,35.2-.1,29.8,0,23.9S4.6,12.2,8.7,7.7C12.2,3.9,18.2,6.6,23,6.1c2.4-.2,5.5-1,7,1.3,3.6,5.1,8.5,10.3,8.7,16.3S33.8,35,30.3,40C27.7,43.6,23,40.8,19.7,41.9ZM19.3,9.7c-2.9.9-6.7-1.5-8.8,1.5-2.8,4-7,8.3-6.6,12.8S8,32.8,10.7,36.9c1.5,2.3,4.3,1.2,6.5,1.1,3.7-.2,8.3,1.8,10.9-1.2,3.1-3.7,6.5-8.3,6.9-12.8s-3.9-8.8-6.7-12.8C26.1,8.2,22.3,10.4,19.3,9.7Z" transform="translate(0 -0.12)"/><text class="cls-2" transform="translate(7.41 30.41) scale(1.06 1)">p</text></svg>