<svg id="圖層_1" data-name="圖層 1" xmlns="http://www.w3.org/2000/svg" viewBox="0 0 38.8 41.95"><defs><style>.cls-1{fill:#16cfa1;}.cls-2{fill:#26d3a8;}.cls-3{fill:#23d2a7;}.cls-4{fill:#0bcd9d;}.cls-5{font-size:38px;fill:#0a8e65;font-family:HanWangWCL03;}</style></defs><path class="cls-1" d="M449.26,348.07c-3.85-.88-8.49,1.67-11.07-1.77-3.71-4.93-8.64-10.24-8.59-16.23s4.59-11.67,8.74-16.13c3.54-3.81,9.47-1.15,14.32-1.56,2.39-.2,5.45-.95,7,1.31,3.57,5.1,8.5,10.34,8.71,16.26s-4.92,11.25-8.51,16.28C457.31,349.83,452.65,347,449.26,348.07Zm-.35-32.19c-2.9.85-6.68-1.55-8.79,1.53-2.76,4-7,8.27-6.61,12.83s4.1,8.75,6.76,12.86c1.46,2.26,4.33,1.21,6.5,1.08,3.68-.22,8.26,1.84,10.88-1.24,3.12-3.68,6.55-8.33,6.86-12.76s-3.89-8.81-6.7-12.79C455.72,314.42,451.91,316.64,448.91,315.88Z" transform="translate(-429.6 -306.22)"/><path class="cls-2" d="M443,330c2,.76,5.64-1,5.64,1.38,0,3.05-3.61,1.46-5.58,1.52s-5.52,1.27-5.53-1.07C437.52,328.63,441.23,331,443,330Z" transform="translate(-429.6 -306.22)"/><path class="cls-3" d="M445.59,342c-1.24-.44-3.42.9-3.64-1.22-.25-2.3,2-1.66,3.27-1.62s3.46-.85,3.65,1.24C449.08,342.74,446.82,341.63,445.59,342Z" transform="translate(-429.6 -306.22)"/><path class="cls-4" d="M444.73,337.41c-1.84-.55-4.69.85-4.92-1.19-.27-2.28,2.51-1.28,3.87-1.22,1.72.08,4.68-1.23,4.93,1.17C448.81,338.13,445.9,336.68,444.73,337.41Z" transform="translate(-429.6 -306.22)"/><text class="cls-5" transform="translate(7.93 30.41)">p</text></svg>